/* XPM */
static char *result[] = {
/* columns rows colors chars-per-pixel */
"100 50 238 2 ",
"   c #3D0C01",
".  c #370900",
"X  c #481802",
"o  c #542403",
"O  c #5D2503",
"+  c #5C2A07",
"@  c #54240A",
"#  c #5A250B",
"$  c #57280C",
"%  c #5C2C0B",
"&  c #5E310B",
"*  c #5B2C12",
"=  c #592B16",
"-  c #5E3115",
";  c #5D361B",
":  c #4C2005",
">  c #632C06",
",  c #61260C",
"<  c #632C0B",
"1  c #6A2D0D",
"2  c #692E05",
"3  c #65320D",
"4  c #6B330E",
"5  c #70370E",
"6  c #632E12",
"7  c #662E15",
"8  c #643314",
"9  c #6B3414",
"0  c #6D3914",
"q  c #64341A",
"w  c #6B351A",
"e  c #663A1D",
"r  c #6D3B1B",
"t  c #703614",
"y  c #733B14",
"u  c #7A3D15",
"i  c #733D1C",
"p  c #7A3E1C",
"a  c #733619",
"s  c #5D3B22",
"d  c #6B3D22",
"f  c #683B26",
"g  c #723D22",
"h  c #7A3E21",
"j  c #743F29",
"k  c #6E411C",
"l  c #7A4116",
"z  c #74411D",
"x  c #7C431D",
"c  c #7D481D",
"v  c #744217",
"b  c #6E4024",
"n  c #6C422A",
"m  c #744223",
"M  c #7C4523",
"N  c #7D4925",
"B  c #75452A",
"V  c #7C4629",
"C  c #75492C",
"Z  c #7D4A2A",
"A  c #764824",
"S  c #7E532D",
"D  c #6F4733",
"F  c #744B31",
"G  c #7B4D34",
"H  c #7A4D3A",
"J  c #754736",
"K  c #7D523C",
"L  c #7D5439",
"P  c #7D5542",
"I  c #7D5842",
"U  c #7C5B49",
"Y  c #6E5342",
"T  c #803F14",
"R  c #82461D",
"E  c #83491E",
"W  c #8C4D1F",
"Q  c #86521E",
"!  c #824623",
"~  c #844B25",
"^  c #8A4D25",
"/  c #82462A",
"(  c #844C2B",
")  c #8A4E2B",
"_  c #914E29",
"`  c #865126",
"'  c #8B5226",
"]  c #85522C",
"[  c #8C532C",
"{  c #8E592D",
"}  c #935326",
"|  c #92552C",
" . c #945A2D",
".. c #995C2E",
"X. c #975929",
"o. c #834D32",
"O. c #8A4E31",
"+. c #844E3A",
"@. c #855333",
"#. c #8C5432",
"$. c #8E5934",
"%. c #85543A",
"&. c #8B553A",
"*. c #845A3D",
"=. c #8D5A3A",
"-. c #875835",
";. c #925532",
":. c #995634",
">. c #945B34",
",. c #9A5D34",
"<. c #91563A",
"1. c #945C3A",
"2. c #9A5D3A",
"3. c #A15F3D",
"4. c #9C602C",
"5. c #966135",
"6. c #9C6235",
"7. c #95613B",
"8. c #9C633B",
"9. c #9D683D",
"0. c #9D6A31",
"q. c #8C603A",
"w. c #A16435",
"e. c #A36836",
"r. c #A2653B",
"t. c #A9673D",
"y. c #A46A3D",
"u. c #AA6C3D",
"i. c #AA6737",
"p. c #AC723D",
"a. c #A5703E",
"s. c #AB6A36",
"d. c #835B44",
"f. c #855D4B",
"g. c #875A46",
"h. c #925C41",
"j. c #965F44",
"k. c #85634D",
"l. c #8B624C",
"z. c #8D6449",
"x. c #946342",
"c. c #9C6442",
"v. c #9D6A43",
"b. c #93664B",
"n. c #95694C",
"m. c #9B6A4B",
"M. c #976748",
"N. c #9E7048",
"B. c #8B6452",
"V. c #8D6A55",
"C. c #896757",
"Z. c #946B53",
"A. c #996C54",
"S. c #956957",
"D. c #9B7254",
"F. c #95725D",
"G. c #9C7659",
"H. c #A26642",
"J. c #A46B43",
"K. c #AB6D43",
"L. c #A46D4A",
"P. c #AA6E49",
"I. c #B26F44",
"U. c #B06D48",
"Y. c #A77144",
"T. c #AC7244",
"R. c #A4724A",
"E. c #AC734B",
"W. c #AE794D",
"Q. c #AD7945",
"!. c #B27444",
"~. c #B47A46",
"^. c #B2754B",
"/. c #BA774B",
"(. c #B47A4C",
"). c #BA7C4D",
"_. c #B97A45",
"`. c #A47453",
"'. c #AB7452",
"]. c #AE7B54",
"[. c #AE7D5A",
"{. c #A6745E",
"}. c #B27652",
"|. c #B57B53",
" X c #BA7D53",
".X c #B37E5A",
"XX c #BC7C57",
"oX c #AD6E50",
"OX c #9F7962",
"+X c #A47B64",
"@X c #A87D6A",
"#X c #C27E55",
"$X c #BC824D",
"%X c #B5824E",
"&X c #B68156",
"*X c #BC8253",
"=X c #B5815C",
"-X c #BD845A",
";X c #BD8A5B",
":X c #BA8B54",
">X c #AC8268",
",X c #B38563",
"<X c #BB8562",
"1X c #BB8A64",
"2X c #B58A69",
"3X c #BA936A",
"4X c #B78B75",
"5X c #BC907B",
"6X c #C3824F",
"7X c #C28554",
"8X c #C38A55",
"9X c #CB8956",
"0X c #C3855B",
"qX c #C48A5C",
"wX c #CA8D5D",
"eX c #C98754",
"rX c #D18F5E",
"tX c #CC925E",
"yX c #CC9357",
"uX c #D2955F",
"iX c #C5904D",
"pX c #C28562",
"aX c #C58B62",
"sX c #CA8E62",
"dX c #CA8C69",
"fX c #CC9263",
"gX c #CC956B",
"hX c #C79161",
"jX c #D29564",
"kX c #D49965",
"lX c #D2966D",
"zX c #D59A6C",
"xX c #DA9B68",
"cX c #C49477",
"vX c #D89A71",
"bX c #D38E62",
"nX c #CEA17F",
"mX c #CB9C86",
/* pixels */
"@.q   j #.` [ R J.gX$./ J.2.) ) ) ) ( 5 c ,.~ M V N ) |  .J.F.A.B.%.1.3.T t * w p R ( / [ L.>.) i 9 @.[ ^ ^ o.V.C.J 8.lXy.R [ @.@.e . d Z * 1 O.>.,.E l c.x.%.F b d d @ m v.5.>.~ g.mX{.] ~ ;.9X9XyXp.^ ",
"V d # o.5.J.^.(.*X0X6.#.~ ~ ^ 1.J.#.#.<.R.fX>.x 8.R.*X;XfXE.m.2X,XL.2.} w.7.q i ) 8.y.[ ~ O <.pXH.<.@.$.K.:.( F H $.r.qX/.|.E.t.8.Z $ d V r m 1.}.zX*X/.|.v.N M z m i 8 d [ 5.r.(.(..XE.e.>.O.3.u.*X} 3 ",
"( V g 2.Y.K.!.^.y. .J.H.8 x r.(.qX1.&.x.Y.;Xt.>.z #.-XwXfX$XW.J.v.c.7.:.2.7..X7.i y.~.T.H.p c.aXL.j.&.c.wX^.2.p i v.w.| K.(.K.u.T.1.m ~ ( / $.|.K.H.W.^.(.J.~ [ #.k r b x ^  .y.^.p.:.H.$X,.;.h ! H.[ ] ",
"&.$.;.E.|. .} >.! a 8.v.D %.^. X<Xj.%.$.| 6.u.Y.7 r 5.J.^.%X%Xc M ( -.1.>.2.aXc.+ >.!. X*X!.r.6.>.=.+.c.qX X}.i 0 |.y.y / ] | ,. Xv.( $.>.>.8.aX;.O <.6.6.6.7.x.m.k e N ] 6...,.:. .( $.8.[ V w i @.,.u.",
"1.J.E.^./.| ) [ ( / V &.@XG.=.c.r.[ O.#.:.,.6.y.L.8.~ [ @.P.W.;.( i M V |.|.5 4 0 1.K.6.0.y.,.( [ [ ( O.H.v.v.i i -XK./ M v ~ $. Xv.] | >.w.e.|.#.1 7.I.} ..'.z.f.s ; M  .Q.6.5.[ ` <.M 1 1 w O.O.) ^ ^ ",
"&.1.c.5.1.'.L.) 1.8.>.[ q m $.H./.U.P.0X!. .M.n.9 y ^ ^ / >.y.qX|.#.z 3 ) >.;Xy.y x p H.J.P.) , 6.T.^ / a M ! [ ;.t.,.) $.2.-X X8.~ 2 N | 0X XL.( + N :.aX#X'.G * @.$.# N T.~.*X*X8XtXa.c |.dXK.7.* =.qX",
"P.[ 4 R.,XA.n.x.>.` $X*X5 '  XE.!.| >.uXiX:XD.V.=.=.( H.0XXX*XE.(.aXK.2.v c qX8XqXy.>.0XpX0X&X].-X6Xi.P.K.K.K.>.^ ^ ^ ~ J.|.6.>.) ~ A i 0 z ~ 1.o.m f e V ~ >.( x (.).h ( 8.{ ' y.s.e.p./.w.w.u.M.U V.'.",
"sX/.e.9.7.@.b.3Xm.~ y.T.t.K.(.J.9.` | $X$X-Xn.7.W.v.r @.K.J.H.,.t.*X(.(.[ ` a.Y.L.G.F.H.u. X,X2X.XE._ :.K.|.qX X(.l $.-XwXkXw. .[ V i i r m B >.#.@.m b y M #.,.y.8.8.| 2.J.M 3 ] ^ ^  .T.>.| K.L.A.j.<.",
"qXaXgX| z ( 7.cXR.~ ) | wX).6.1.@.] ` >.2.2.8.8.1.#.w h [ M M [ >.K.u.J.H.8.~ Z i f.C.2.4.6.b.l.1.,.p p R r.7XwX;XM 8.fXaXfX/.K.:.M 9 [ 1.=.-.[ [ @.@.@.] [ >.J.W.| [ r.6.c.V 9 ) / V ~ ] y.Y.u.r.6.| ^ ",
"$.1.x.&.>.>.>.] | ,.y.y.).E.t.) c M ~ ~ ~ ~ r.H.9 a ;.2.J.#.~ A $.=Xu. .,.:.~ ! >.@.[ 0X X) ) ( ( ( 6.>.a ~  .| | R ~ ' ,.t.U.J.[ #.| J.E./ B z N ] @.#.] ` ' r.K.*X*XY.[ < ( ;.t.r.) ( ! P. X5. .,.) M ",
"E >.L.H.r.R z O =.1Xi + A x ! ..J.y.8.N ,.^.K.J.H.2.x y o m.].& - M M ! r.y.J.6.~ Y.-X<.( / N Z &.#.< 9 =.r X / #.2.6.H.P.P.O.Z 8 C #.@.#.] ] z $.^.0XsX0XW.l I.bXjXeX| ' ^ [ | -XwXaXv./ #.2.2.>.( e $ ",
"< g %.i y E.E.H.8.[ #.] 0 ~ |.' a Z N 8 i ] ) ) w ~ ~.Y.L.$.] @.Z 9 >.|.m r ( B % n.1XZ ( |.7.N L.].J.8.( %.%.r 8 M V M a a m Z *.g.A.O.M M C ] | w. .1.,XA.g 2.I.r.6.8.,. .| | [ ~ z m r ( ;.,.#.M f.S.",
"- J Z.n 8 R.!.E.| 9 ~ / M ' T.N - f.d.e e k d.b.q p E.p.T.c a o.Z M ,.^.g f b.K - P B.#. .u.H.,.K.Y.^.r.x / Z w q d.I F b e f d G K f.d q k V R.K.T.i q B.I = M ) t.J.[ 8./.!.J.N p M Z ( M ! P.7.q H C.",
"C f.+X*.V ] { >.| #.] ] ) >.e.5.=.G.Z.C V B k.F.&.@.| | ` / ( M ~ [ ) ' z n V.I Z a 9 >.,.' [ [ ,.,. .' h a y V @.Z.B.K F f $ % A g w f e z ` E.E.}.z 4 ] N 9 z ! c.J.>.y.E.^.(.| [ L.7.<.m y E.H.9 V -.",
"5.] B o.O.h ' Y.*XtX8X%XM 2.tXuXjX>.O.) ^ ) q % L.K.| ) ^ 2.9.H.2.~ / ! 3 % : ; =.y 6 <.2.~ k O 6.W.| ) ~ $.v.H.1.) V m 0 $ o 8 =.M , o.>.~ W / o.Z ~ ] H.r.H.;.M = r -Xy.E >.2.8.r.K.>.~ z v ^ ) ;.P.pX",
"7X8.N ( V h V ( @.$.[ ` [ ,.I./.#XK.5.> c 5.Z x >.#.<.) ! ! ~ p ) 8.P. XR.9.>.] a -.x.>.>.>.@.z @.<.&.] ~ ~ ~ V ~ 6.K. XR.v.1.[ a ( H.[ ! ~ ] E T.hX9.=.S.g.=.<.<.' ' 5.>.>.) R ;.| r.t.E.| ' ;.,.E.,.! ",
"^.8.] %.#.#.] >.[ / ( ) { 8.XX3.O.L.J.6.j.8.;.) M M q N 8.} o.;.:.w.~.wX .| -Xt.x l u e.K.6.<.O./ V w M 5.| O.@.$.8.p.tXr.'  XE.~ R y _ 2.f.V.j.3.X.$XwXdX'.p ) ] ,X2X~ H.lX5.R 7XwXjX0X^.>.^ e M 5.[ M ",
"[ 8.L.,.[ >.{ N ( @.] [ T.K.H.O.! R R o.g.A.7.>.) G f @.^.T.P.' 6.*XT.y.5.6.0X).K. .} i.L.A.M.:.| / f o.T.J.E.<.[  X(.u.,.| *X*Xu.r.^ J.XX1X,X=X!.w.).8XxX8XX.~ r 3X3XI M.-X| c ].0XjX_...[ ~ i i v t e ",
",.u.^.u.r.K.r.^ >.9.M N *XJ.p #.:.~ M q J f.m.P.K.c.m 1.^.}.}.u ' wXy.` 8.v.K.Y.!.K.J.u.M.*.n.^.u.v.B &.T.(.|.E R qXW.~ 2.J.K.T.K.K.y.).-X|. X-X-X-X8.,.&X~.R.$.i Y..XS.g.[ ^ N ] >.|.u...| ] ~ m 4 v ~ ",
"jXI.R /.wX7X#X(.Q.N.m q 8.~ 2  .^.pX=X( B 1 K.9XwX^.+ =..X=.( 3 v 5.5.H.[ ) ! i 9 M ~ J.c.* >.qX7X*X8 M %X6.[ y 5  .>.v.2.) ~ x y R ^ 8.P.t y L.J.L.~ i N N { 5.r.:.2.`.J.;.2.7.) @.2.K.sXy.[ 9 i @.R.qX",
"^ | >.Y.P.' M 8 J B.n.J.O.6.*X^.T.9.1.4 ) H./.#X| >.L.b.k.f q A ' T.6.5.[ ~ $.M 6 - 6 ) O.O.~ ` [ ' ! o.i c ` Y.].#.>.>.6.8.^.H.9 ^ (.~ y ^ >.).(.E.9.q.e V L.r.r.r.8.| ) O.) ) c.v.8.5.[ / M V *.>XA.2.",
" .6.7.1.>.~ b $ G A.7.5.6.y.~.~.~.r.-.< ) ^././.6.6.7.c.Z.d q A ` 8.,.>.>.>.~ #.c.-.N a p @.$.6.w.5.! V ` '  .^.}.] @.$.>.,.*X].O l 8.z 3 i [ qX$X~.y.>.< c T.~.$X(.P.w.2.&.%.$.-X-X^.r.) $.=.N q.mX.XH.",
").6.~ ) ( v A -.[ [ ] ] (.!.e.7XkX8X].h >.~.e.t.W.a.E [ ;.m r z M ) >.w.p.!...r. X8.| h ! 2.K._.!.y.1 c &XT.p.K.H.M C Z ) ` R.W.M.Y.|.N 8 v.J.^.-XkX8X XM | ^.T.T.~ ^ 0X}.c.h.#.-X X6.H.v.<.>.6.v.R.J.2.",
").5.v ) ] 3 k 9.( m V @.}.K.` $XfXqX X( >.y.>.>.W.R.>.~ i i g 8 0 [ >.J.^.].=X'.P.:._ r.r.).~.p.!.T.R | |.E.R.8.-.6 e V z 0 $.H.gXqX X>.~ aX0X:.~.tX8X;X) ;.J.:.) , a 0XE.<.;._ t.r.^ 1.P.;.[ t.1.9 g V ",
"~ | 8.8.j.% % r g f G %.v.,.c ' 6.5.} x ~ ' ~ ~ 1.H.-Xx.t z m $ i c.,.,.) =.5X+X/ #.) 7XtXwXK.R ).wXjX|.! ) | ] V   = +.q # ( [ 6.[ v 7.`.<XE.! { 4.4. .p ! [ ' ) H.j._ / t V ( ( ) ~ @.;.,.,.p 9 1 i Z ",
"p [ 8.[ / < 8 o.q X B @.| ` c ^.hXwX7X^ H.fX{ M N V 1 9 t #.7.#.[ [ ) ^ ` S r M ^ 2.c.[ ` [ M 1 [ 5.4.{ ! 1.c.=.L n d g 6 @ h.8...>./ >X5X=.#.^ T.uX8X;X' H.dXqXqX| ^ | O.@.= X F N + a [ :.,.! ( m.R.&X",
"|.qXlXJ.=.i i Z f * @.1.u.^.|.*X6X~.J.2 ' 0Xp.8.N m 1 ( K.;.[ J.8.^ 2.J.#.@.&.J.dX! , ~ [ J.>.M .XqXtX*X[ H.|.-.V g m g r w ( | w.u.(..X.XP.3.)  .w.Q.%X4 ! ^.).eX).^.E.8.1.g # Z m 0 / 1.-XlXXXE.m E.lX",
"(.E.m.A.b.K ) ] V m c.E.u.T.^.r.4.u.w.~ ;.y.( ! 1.8.T.H.H.<.=.c.H.,.^.aX<.&.c.E.qX>.! y.T.^.6.! W.8XtX8X9.p.Q.[ ` >.) y g m ( ) 6.u._.w...^.!.;.~ t >.6.^ | K.w.| T.~.a.J.R.[ h Z ~ ( 7.|.J.H.|.H.3 [ L.",
"3./ @ f.F.j.>.#.@.( R.|. .' ) E v ,.y.J.2.) 9 1 J.].mXR./ >.<.[ ,.E. XaX<.#.$.>.,.u.E.*X).!.:.9 #.8.).~._.u.5.,.8.n.d.- m N >.5.5.,.,._ ^ c.h.Z z w ~ #.J.i.r.) i ) ` [ 9.-X>.` #.>...K.qXi O 6.[ 3 i x ",
"!.| 3 x.}.r.,.2.$.$.E.T.` ~ g V Z [ ) ) ) ^ 5.r...M.@Xl.Z N c ~ ;.H.J.J.{ ~ $.) ~ 8.T.w.y.J.;.9 $.c.E.^.eXH.) H.m.l.Y = m ~ a.y.:.<./ _ ;.8 - & z =.o.[ ! E ) O.o.m m ) 8..X8.@.1.,.r.r.|.c 0 J.7.8 N [ ",
"[ m 0 M N [ <.J.6.| y 0 [ 8.|.o.+ |.eX9Xx.= V } 7X-XW.] % -.>.3 c U./.~.eX6X9X!.x ).uXI.j.6 $.qX6X*X9 V %X8.#.t 5 $.,.c.$.) ~ m i M ~ t.I.4 y v.c.`.V i z ) $.7.7.>.:.'.J.:.2.6.) -.2.!.sXy.#.a v ^ u.qX",
"y.K.T.K.J.J.2.^ K.aX~ M |.Q.W.=.B H.u.u.m.f.n 9 V ~ $.] v W.&Xx ~ c.:.^ y.H.i.K.!.w.3.t.v.d.M.!.p.T.i %.Q.!. Xc c qXT.^ 5.y.J.T.Y.J.y./.*X}.=X-X-X0Xr.>. X XE.{ v R.].S.b.] ) ~ ] >.(.u.,.[ ( ! m t v M ",
"} ..K.*X7X6.,.y.^.*X1.$.Y.a.E.&.d ( ) ,.x.Z.*.@.V / V ;.t.T.T.[ O.@.] ~ #.1.#.>.T.2.;.I.L.M.z.>.' ~ d / E.p.K.>.#.&X).u.6.| *X-Xu.6.W u.(.<X,X-X^.r. X9XvX0X..R 0 1X3XL n.,X| c E.*XkX/.X.;.) p i g y e ",
"u R R E. X' 5.fX!.6.;.$.( ` 8.V 9 M Z ^  .x.5.6.J.H.' y.^.6.[ Z ( ( @.$.[ -.%.&.( v.E.u.y.7.:.[ Z M f B 6.X.~ ) <.8.u.sXy.^ /.^.! R u | 7.M.b.c.,. .*XaX1XE.u ^ ] 2X2X~ v.vX6.R 0XsXfXeX/.,.) 9 M 2.) ^ ",
"c.) t ` >.y.y.).P.r.~ c E ~ ! ) ;.>.@.i ] 8.r 3 8.J.#X~.R.5.{ ~ O.=.] ] x m N Z V L. X6.1.>.' x [ >.| #.~ ! ! M ~ 8.K. XT.v.>.[ y ~ x.[ N ] @.~ J.gX8.$.n.1.>.1.<.@.@.,.6. .W E [ X.w.y.K.>.) | >.].2.! ",
"% z =.; o % 9 j B Z 2.y.9.>./ | | !.y.# r ^ ( @.| e.kXrXuX[ ~ *XeXrX/.P.~ z ( ) N >.>.3. .) d @ 7.}.| ) / <.y.y.c.~ ! z 9 * : * -.M < ( >.N N ~ ^ ` ~ ] H.H.J._ ~ > 0 -Xe.R | >.y.6.J.1.~ g i ^ h.>X@X<X",
"q r B * * f j d.k.V.$.R 0 i p ) | 3.3.[ @.} ! A q r #.5.m.b.V.$.Q E ) O.$.>.<.>.,.<.>.,.| m U F.h.%.<.[ [ ( ~ M ! [ [ ) C n k.l.J B w w 0 k ] R.E.(.l 3 ' ! 9 h ~ 9.N.,.J.(.|.&X[ ( L.1.[ k 0 R.A.f H <.",
"f.P H m r w d H K d.r q / / z 2.^.u.a.$.9.E.~ d B V m @.=.M.M.S g 6 = 6 / ( | >.6.' ( D.S.f H A.f 1 K.I.!.[ 9 Z ) m @..X` ; k.k.; J S.f 6 / ;.P.y.7.k q f.I n B m ] -.z ( x.=.$.$.:.#.2.W.9.7.L.8.[ ( m ",
"F.B.I F b z r M h / w 9 #.O.( 7.L.|.Y.( $.W.] M u.u.i.t.,.X.| ,.,.:.( M h h ) :.,.E M B.k.H ) ^ z u E.E.J.1.] #.] 9 / (.^ 9 / Z % *.4Xc.#.H.2.[ ~ t A G S.k.d.S m r w V m V 9 < O.@.N 1.R.(.W.( $.|.>.! ",
"( M w M [ J.v.y.3.2.;.V o 9 =.r o O.;.~ ~ ~ A ^ eXwXjXE.) ;.| ^ w.wXpX-X$.) 2.2.6.[ M # d [.I.r.y.8.! i # >.0Xr + B R ! 2.L.J.8.( 8.7XwXyX!.r.z V ] [ { $./ 0 M ( J.K.r.r.6.<.) O % =.M o N $.N ~ / ( ( ",
":.[ ~ J.E.w.6. .^ R ` >.>.[ y O.>.) ! ^ ) ~ ) [ :X;X7.x.Z.h.| | | | :.6.5.y.).T.y.` v m N M  .E.m 4 #.<.J.:.) V ] |.T. .,.>.! ^ #.#.] ^ W 6.:.t ~ 5.>.#.N ~ [ | 6.T.K.} | } H.R.( V M ! G %.K V ( [ 7.P.",
"^ ' $.H.p.$XE.` ^ ~ 1X3X) ~ u K.dX0X|.~ >.t.r.8.G.N.v.[ r Z ) /.*XjXt.! aXjXxX(.9 ~ ' H.y.9.6.6.6.>.9 y [ ! x ] 7.J.u.J.r.8.) ! p K Z.h.2.p p ! 6.&XtXaX! 5.hXfXlX).u.| M 9 [ 7.&.&.#.) [ @.@.O.#.1.J./.",
"P.J.H.>.>.E.y.p ) #.`.[.y.:.T I.<X1X.X;.,.t.(..X>X=X(.w.W w.I.qX7X*X>.x ^.$XkXT.9 / ' ,...} r. Xr.,.) S P 1.H.) N J.~.qXK.r.K.P.H.`.,X X(.| | J.(.qX$X^.R #.-X[.'.8.,.) N i r b f F $.6.T.~ e g V >.2.8.",
"oXK.T.O.p >.:.^ ,.T.w.w.^.p.w.w.M.d.f.`.u.t.).-X X|.0X^.J.I.T.Y.8.] ~ ~ [ | *XH.p O.( >.>.E T.zX,.) 1.b.C.[.fX~ i 6.p.9X).^. X-X-X-XqX X^.H.K.I.T.T...>.a E 1.*.G Z ~ ~ ) ] M 0 0 M 1.u.*X~ e g i ! ~ ) ",
"= A b.r 9 J.!.).$X6X8X7X~ 8.fX!.y.0 m -X7X9XP.H.4 p |.,.E l z M ) [ ,.y.) ) 7.) 6 ) 8.-X-XJ.^.eX4./ 1 m L.^.*X>.] 1 z $.W.qXr.>.~ [ 1.<.;./ h a x ^ P.E.t N Y.K.T.~ m N ] { 2.r.2.H.(.,.^ 8.v.2.#.1 ! >.",
"U F % m ( K.u.r.:.) | ;.7 7 8 V &.) ~ ~ ^ | 3.H.) ) ;.) ( 8.v.M.1.3 6.8X#./ a V @.L.(.[ ) ' | | ~ O.v.6.e.^ 5 T. XN B z c ` T.E.-.{ ..6.8.|.H.> ) ^.>.[ J.L.r.e.y.J.7.9 N 8.J.^./.I.| ` [ / M Z *.OXn.h.",
"F.L + A ( 5.:.>.:.>._ ) 8.$.Z m 9 ( | K.y.6.u./.6.2.$.&.+.|.6X(.2.< { &XE i @.@.S v.&X .>.2.2.<.%.&.;X$X^.%.& J.W.p M ] {  .~.'.o.#.<.:.>.i N ^.w.4.6.r.8.r.W.A.z.R.H.1 M 8.E.).qX^.l N ] $.>.R x.mX<XJ.",
"| N e k z ` ' w.u._.6.6._.K.| ~ i >.,.( 1.T.^ M  X.Xc.1.%. X7XJ.$.1 ' N.*.$..X7.i 5.E.T.!.7X'.c.h.-.;X|.y.~ 3 5.y. .6.(.T.K.Y.c.M A A L.|.H.c.&Xv.N u.!.@.Z m +.h.R.T.p >.*XtXfX|.E.H.9.x.1.>.r.H.E.v.1.",
"x v d e 8 ] $.t.K.|.[.{.K.3.) ,.6.%X!.2 ~ $Xx 1 .X.X;.#.( c.e.' ~ N [ $.D.[.=X<.@ Z 2.J.!.-XJ.<.&.@.J.2.^ ~ ~ ` 5.-X*X(.T.K.6.O.* e z L.*XgX0X1.@.w H.^.@.m $ V O.y.y.! 8.tXqXfX8.9.gX XJ.>.[ y.1.9 m M ",
"v z m * $ 7.c.,.| / 2X5X#.O.^ /.uXyX6X' K.jXT.8.' ~ 9 M [ ) ) ~ >.L.$.~ <XaX[ w . r [ [ | [ N 9 ! ] ) ) ^ 1.L.( [ fX(.c [ [ #.B   * ] M ! 2.| O.f @ <.L.K &.L.$./ ( ( x ~  . . .^ $.1XL.' ,.,.y 9 % r ( "
};
