/* XPM */
static char *result[] = {
/* columns rows colors chars-per-pixel */
"100 50 226 2 ",
"   c #1F1D1A",
".  c #221E1C",
"X  c #25231C",
"o  c #28261F",
"O  c #292E11",
"+  c #2D3313",
"@  c #303614",
"#  c #343B15",
"$  c #383F17",
"%  c #37391D",
"&  c #2A2621",
"*  c #2D2A22",
"=  c #242020",
"-  c #312E25",
";  c #322E29",
":  c #353424",
">  c #3B3B23",
",  c #35312B",
"<  c #3A352E",
"1  c #3D3A2D",
"2  c #393725",
"3  c #3B3630",
"4  c #3E3933",
"5  c #363330",
"6  c #423D35",
"7  c #433E39",
"8  c #3A4216",
"9  c #3D4518",
"0  c #3F4819",
"q  c #3F4025",
"w  c #434B1B",
"e  c #424B18",
"r  c #47501C",
"t  c #4A541D",
"y  c #4E581F",
"u  c #525D18",
"i  c #5A641D",
"p  c #68761D",
"a  c #454727",
"s  c #4D5224",
"d  c #4E512B",
"f  c #555A29",
"g  c #454135",
"h  c #4B4B33",
"j  c #46413A",
"k  c #4A443C",
"l  c #4E4A3D",
"z  c #494537",
"x  c #514B3E",
"c  c #514D36",
"v  c #545433",
"b  c #55533B",
"n  c #5A5A3C",
"m  c #575836",
"M  c #4F5031",
"N  c #5B612C",
"B  c #5C6427",
"V  c #5D6133",
"C  c #5F613E",
"Z  c #626E23",
"A  c #636B2A",
"S  c #60672A",
"D  c #697426",
"F  c #6C7A23",
"G  c #6B742B",
"H  c #6A7529",
"J  c #737D2D",
"K  c #646B33",
"L  c #63663C",
"P  c #656A3B",
"I  c #676B38",
"U  c #6D723B",
"Y  c #677535",
"T  c #737D34",
"R  c #737B3C",
"E  c #74783E",
"W  c #4B4641",
"Q  c #4E4942",
"!  c #464547",
"~  c #534D44",
"^  c #544F48",
"/  c #584E48",
"(  c #565046",
")  c #5A5346",
"_  c #5D5C44",
"`  c #565149",
"'  c #5B554C",
"]  c #5E584E",
"[  c #5C5652",
"{  c #5E5951",
"}  c #4C4F57",
"|  c #625B4D",
" . c #615D45",
".. c #635D53",
"X. c #635E59",
"o. c #605653",
"O. c #636444",
"+. c #696B45",
"@. c #66624C",
"#. c #6B6A4A",
"$. c #686649",
"%. c #6E7343",
"&. c #6F704C",
"*. c #757B42",
"=. c #72734C",
"-. c #747A48",
";. c #797C4C",
":. c #747945",
">. c #666055",
",. c #6A6255",
"<. c #6D6B53",
"1. c #66615A",
"2. c #6B655B",
"3. c #6E695D",
"4. c #726B5E",
"5. c #706958",
"6. c #6C7858",
"7. c #747453",
"8. c #75735C",
"9. c #7C7A5C",
"0. c #797757",
"q. c #5C5E64",
"w. c #6B6561",
"e. c #6E6962",
"r. c #736D63",
"t. c #786F61",
"y. c #736D69",
"u. c #746A64",
"i. c #777065",
"p. c #7A7365",
"a. c #7E7A64",
"s. c #75716A",
"d. c #7D766A",
"f. c #7F786C",
"g. c #7D7573",
"h. c #7E7972",
"j. c #75777B",
"k. c #807F5A",
"l. c #807E54",
"z. c #807667",
"x. c #827D65",
"c. c #80776B",
"v. c #817A6D",
"b. c #837C72",
"n. c #837C79",
"m. c #798D1D",
"M. c #748422",
"N. c #76842B",
"B. c #7C8C2A",
"V. c #788924",
"C. c #7B8635",
"Z. c #7B843B",
"A. c #7A8836",
"S. c #7A8342",
"D. c #7E834B",
"F. c #768543",
"G. c #7C8257",
"H. c #7D896B",
"J. c #86962A",
"K. c #828E36",
"L. c #859333",
"P. c #8A963E",
"I. c #889638",
"U. c #98A737",
"Y. c #848C44",
"T. c #858D4B",
"R. c #888E47",
"E. c #8A9444",
"W. c #8D9648",
"Q. c #83835C",
"!. c #848756",
"~. c #8B9358",
"^. c #93975B",
"/. c #94A54F",
"(. c #848364",
"). c #85896A",
"_. c #8B9563",
"`. c #939768",
"'. c #878075",
"]. c #888176",
"[. c #85827A",
"{. c #8B857B",
"}. c #8E897E",
"|. c #828C7A",
" X c #908A7E",
".X c #908E70",
"XX c #879376",
"oX c #959C76",
"OX c #9BA469",
"+X c #97A478",
"@X c #7CA8EC",
"#X c #7FABFE",
"$X c #7DA9F5",
"%X c #8C8680",
"&X c #8F8981",
"*X c #8F8E8D",
"=X c #918C82",
"-X c #948E8A",
";X c #959285",
":X c #969189",
">X c #9A958D",
",X c #9B998A",
"<X c #8C8E94",
"1X c #868A92",
"2X c #8E9196",
"3X c #8F9298",
"4X c #929395",
"5X c #9D9A92",
"6X c #92959A",
"7X c #9B9691",
"8X c #8F918D",
"9X c #A29D97",
"0X c #A6A299",
"qX c #9B9FA7",
"wX c #9FA5AA",
"eX c #AAA5A1",
"rX c #94ADD5",
"tX c #96AEDB",
"yX c #98AFDC",
"uX c #99B1DA",
"iX c #8EA5D2",
"pX c #B0BCCF",
"aX c #81ABFB",
"sX c #82AEF3",
"dX c #9EBBEA",
"fX c #BAC3D3",
/* pixels */
"pXfXfXfXrXrXrXrXuXuXdX#X#X#X#X$X$X#X#X#X#X#X#X#X#XaX#X#XaXaX#XaXaX#XaXaXaX#X#X#XaXaXaXtXtXyXtXiXrXrXyXtXuXuXtXyXuXyXuXuXyXyXtXtXuXtXuXyXtXtXrXrXrXrXrXrX@X@X@X@X$X$XaXsX@X@X$XsX@X@XaX$XsXsX#X#XaXaXaXaX",
"Z./.OXoXXXXXH.XX6X1XH.!.:.H.wXH.8.4X6X&X_.+X5X6X6X6X6X6X2X4X3X6X6X6X6X6X3X3X6X6X4X4X6X6X6X1Xg.q.! } qXqX6X4X2X2X2X<X6X6X3X6X3X<X4X<X<X2X3X8XOX).6.A./.H._._.(.).}.4X[.Q.D.Y 8X9XG.8.4X-XXX^.OX>X4X4X4X-X",
"0.R +.i.v.z.z.p.v.p.5. .i E.>Xb.z.b.v.z.6.R P.c.v.v.v.a.z.c.v.v.v.v.v.z.z.v.v.v.v.z.z.p.v.p.9...6 7 >X&Xb.b.v.c.z.v.v.b.b.v.v.z.z.v.v.v.v.v.R.U 2.9.Z.1.b.d.v.p.d.f.8.2.b p `.-Xb.b.b.v.i.,.K.T.b.v.z.v.",
"s.b.b.v.v.v.v.d.z.b.z.o.V E.7X{.b.b.b.b.g.!.I.n.v.b.v.f.b.b.v.d.b.c.v.p.p.v.v.v.v.v.v.d.d.v.p.2.7 7 7X%Xb.b.b.v.b.b.b.b.v.b.b.v.v.b.v.f.v.f.C.L 1.g.h.H.c.v.v.f.a.f.c.4.( N.oX-Xb.b.b.v.b.g.L.!.b.b.v.v.",
"p.v.z.x.v.d.v.v.z.v.z...h b 5X&Xn.b.b.v.b.l.N.f.v.v.d.^.Q.b.b.b.v.v.v.v.v.f.c.b.v.d.v.d.z.v.p.,.6 z 9X Xb.b.b.b.b.b.p.f.c.v.v.v.v.v.b.b.f.b.9.3.t.v.z.x.f.d.c.v.c.v.z.5.x 2 =X:Xb.b.b.b.b.x.N.9.v.v.v.x.",
"d.c.p.;.v.z.v.c.i.z.z.| 4 4 >X}.b.b.b.b.(.T.#.v.v.v.n.E.R.g.z.z.d.v.v.d.z.z.d.f.v.p.v.v.i.d.z.,.6 k >X Xb.b.b.c.d.f.c.c.c.v.v.v.v.p.z.z.d.c.b.c.d.f.p.;.(.p.c.c.i.p.d.,.k < =X=Xb.b.].b.x.R.#.d.v.d.n.Q.",
"d.p.p.v.W.E p.z.c.f.p...g 6 7X:Xb.v.b.b.Q.K.h.v.v.v.^.L.Z.t.p.p.d.f.z.d.p.p.s.v.v.p.z.p.v.d.t.| 6 k 9X;Xb.v.b.b.v.b.b.b.v.d.c.c.p.p.z.d.d.d.z.d.s.p.p.v.E.U a.z.c.c.p.| j g >X:Xb.b.v.b.Q.K.n.v.v.v.~.P.",
"t.r.4.~.M.n 2.8.p.r.4...c K ;X[.p.d.z.v.8.L f.d.p.K.Z.U T K.!.r.p.d.p.4.p.p.p.z.p.4.t.4.p.p.4...6 k :Xb.z.z.z.c.z.d.z.z.i.t.t.p.p.p.i.i.i.i.p.t.p.3.0.E.D ) 4.8.t.4.2.| v U -Xb.p.p.z.c.8.O.z.z.y.K.E U ",
") O.E J.p M ~ ~ ~ | ' n U.J.m c  .@.| | ~ k ) ) ) c ~ /  .J p h x x ( x ~ ( ~ ~ ~ ~ ~ x x ( x 6 < ; j j ) | | ) ( ( ( ( ( ) ( ( ) ) ) ~ b x ~ b ) +.C.m.i g ~ ~ ) | ( U U.B.h b  .| |  .~ k ~ ( ( c x / ",
"&.B L.A.D I n M f H J F V.E ;.l.&.E R ,...>.[ ..X.2.7.7.*.L.L.s 2.1.{ >...X...{ ..........1.........2.1.1.2.1.1.X.2.X.2...2.2.X.Q 3 5 h _...X.8.K N.L.T D +.m d S N.F F N.:.;.G.=.C.&.,.1.X...X.1.i.0.0.",
"{.(.I Y.&.s.'.9.9.8.8.5.3.c.b.].%Xa.Z.^.}. X X=X=X=X{.{.l.B.Z 6 7X0X=X&X=X=X=X X}.}.=X=X=X=X X}.{.{.}.=X=X=X X}.{.}.}.=X X}.}.b.z...< ^ eX7X}.%X].%.Z.D.2.].x.a.a.8.8.5.i.n.n.{.].=.W..X{.}. X=X X{.{.v.",
"v.b.g.P.%.u.c.b.b.b.b.b.b.d.v.v.v.c.0.K.d.p.d.v.d.d.p.t.Q.L.g < &X{.f.f.c.v.v.b.d.d.f.v.v.d.d.v.z.p.f.f.v.c.v.d.d.p.z.v.z.z.t.p.r.| 6 / 9Xc.z.c.b.b.T.R w.v.b.b.b.v.b.'.v.d.v.v.v.d.B.k.f.p.c.f.d.p.t.z.",
"b.b.n.E.T u.b.v.b.v.v.b.v.v.v.v.v.b.8.K v.v.p.v.v.v.v.g.Q.B.6 < *X:Xb.b.b.b.b.b.v.v.v.b.v.v.v.b.b.b.v.f.v.d.d.v.v.d.d.v.v.v.v.v.t...6 ) 9X{.'.b.b.n.E.T e.v.v.v.v.v.b.b.v.v.f.v.v.d.K z.v.p.f.v.v.v.v.v.",
"v.b.!.B.%.y.b.v.b.v.v.b.v.v.v.v.c.s.p.r.p.d.d.v.v.c.z.i.9.V.6 ; '.;Xb.b.b.b.v.b.v.v.v.b.v.v.v.v.d.v.f.v.d.p.i.p.d.d.f.b.c.c.p.s.5.o.6 ( ,X{.b.v.v.T.C.#.i.v.b.b.v.v.v.z.c.v.v.z.d.d.r.p.p.v.v.v.v.d.t.a.",
"v.n.T.R w.c.z.v.c.(.%.8.p.p.v.f.f.f.v.z.z.d.d.f.z.d.v.f.p.S z U ;X-Xb.b.b.b.b.v.f.v.v.v.v.p.d.p.p.v.v.d.z.v.d.f.d.d.v.z.d.c.z.d.t.| < X.9X{.b.b.b.L.#.y.v.f.v.v.Q.%.d.i.d.b.v.d.f.d.f.v.z.p.v.d.d.v.d.p.",
"p.b.=.P i.v.d.z.v.L.T.z.s.i.p.p.t.t.d.d.d.y.x.v.p.d.d.t.,.| x A oX>Xz.p.v.v.v.z.f.d.d.d.v.v.v.p.p.p.p.4.p.d.d.d.z.p.p.d.p.v.p.5.5.| 5 L `.d.i.d.v.I 5.p.f.d.f.l.J.k.t.y.p.p.p.4.p.d.i.s.t.(.d.p.z.d.4.,.",
",.,.....,...| ,...L J.C.=.7.| | ) | _ b *.T M.G ) ] ,.@...) l s n ^ | 2.,.,.,.,.....| ..| | | ,.,.,.| | | | | ' ) | | | ' | | | ~ z , 2 6 x <.,.,.....,...| |  .M.J.U ;.| | ) |  .( O.Z.H M.L ) | ,.....",
";.#.` ` ' #.*.;.P Z.U A F Z K ;.P +.O.+.*.Z.*.R R P f s s , 3 , 7 ~ ^ ' ) ` ^ ` ) ' ) ^ ~ ~ k 1 3 6 ( ^ ^ ^ Q ~ Q ~ ^ ^ ~ ` ^ ^ ^ ~ ~ ~ ~ _ D.=.) ^ ) $.-.S.%.E S.n D D B F.%.+.+.+.%.S.S.*.Z.U f s s a ",
" X X{.}.=X X X X X X{.[ ; , x 0X9X=X=X=X%X{.}.=X=X].r...1 6 j u.=X=X=X}.}.{.}. X=X=X X}.=X].p...3 j 9X5X-X X=X}.}.}.=X=X=X=X}.{.{.{.=X=X=X=X X{.{.}.&X}.}.=X X=X&X2.5 , 3 5X0X=X=X=X=X%X%X=X-X&Xd.2.j < ",
"d.p.z.b.t...l | u.4.` 6 < < 6 %X}.'.v.v.t.d.b.b.h.b.'.f.~ j j i.b.c.v.z.s.f.v.v.z.d.d.p.p.d.z.2.j k :X{.v.b.v.v.f.b.v.b.v.v.v.i.v.v.f.v.d.f.d.i.z.b.i...l ' 4.2.( 6 1 < 3 }.=Xb.b.c.r.i.b.b.v.v.].b.' g ",
"d.d.d.p.b.d.r.` ) [ ' r.>.Q 3 Q e.2.` { 1.1.d.b.v.v.r.l ~ 2.s.d.b.v.v.c.p.v.v.v.v.v.v.v.c.v.d.2.k j >X&Xb.b.b.v.b.b.v.b.b.v.b.b.v.b.v.v.v.d.d.d.d.p.v.d.u.~ { ' ..4...l < Q w.2.~ ..>.1.f.b.v.v.r.l l 2.",
"v.v.v.r.t.d.d.f.v.d.v.b.5.Q 3 Q Q 1.e.f.b.f.b.v.v.v.d.2.v.v.d.v.v.c.v.b.v.v.d.v.c.p.d.v.p.d.d...z j >X}.b.b.b.v.f.d.d.z.z.b.f.f.v.v.v.v.v.v.v.v.d.r.d.p.v.v.v.d.b.v.,.7 4 ^ Q 1.u.b.v.b.v.f.b.f.i.2.h.v.",
"d.4.r.4.3.s.v.i.r.t.p.4.2.x 3 %X-X'.b.f.1.....^ ' r.b.].i.2.u.i.s.z.v.f.d.p.p.v.f.d.f.f.c.c.p.| 6 j >X&Xb.b.b.v.v.v.b.v.v.d.v.v.p.i.p.4.r.f.p.4.r.2.r.v.d.r.2.d.t.4.| 6 Q 5X}.'.b.i.....] Q { d.].b.r.2.",
"2.,.4.2.,.2.2.,...2.2...,.x 4 w.s.2.2.2.{ ] >.' ` k Q ..2...' ) 2.v.d.i.p.p.p.p.d.t.p.i.p.z.8.,.j l 9X}.c.v.v.v.b.v.v.z.i.p.d.d.p.p.v.' ..2.,.2.4...2.2.,.,.,.2.....| 6 ^ h.2.2.2.1.{ ....' Q j ` 2.2.) ",
"' ) ) ' ' ( ~ ~ ( ) ~ ) l 6 , j ~ ~ ( ) ) ' ..| ) ^ g < 4 7 W ~ )  .' | ' | ' | ' | ' ' ) | ' k 6 , ' ) | ,.,...| | ..| | | | | | ..| ) ) ' ) ' ' ' ` Q Q ~ ) ~ | x 7 < 6 ~ ~ ( ` ' ' ..| ) ( Q 3 < j j ",
"< < < 3 3 4 ` ` ^ ~ ` ] ' ' ) ^ ~ ^ ^ ^ ^ W < 3 ` [ ....' W 6 < W ..' ' ' ' ' ` ` ' ' ' ' | ' ` ' ` ^ ' ..[ ..' ' ' ' [ { ..[ ^ 6 6 < 6 6 < < < < 3 4 ' ( ` ^ ` | o.' ' ^ W ~ ^ ^ ` Q < < ^ { { >.[ Q 3 ",
"< < j ^ Q ' 1.s.'.{.{.=X{.{.}.'.b.h.b.h.2.Q ..i.}.=X}.}.].z.) - X.eX>X}.=X=X=X=X}.}.=X=X=X=X=X}.}.].}.=X=X=X=X{.}.}. X=X X X{.v.4.k < < , , < j Q ~ ( { d.[.{.%X&X%X{.&X].b.b.n.b.e.Q ' r.{.=X}. X{.f.| ",
", 3 ' d.'.f.3.2.f.d.f.d.d.f.i.i.i.d.v.f.>.j i.'.v.f.d.i.t.8.,.6 ^ >Xv.c.f.v.v.b.v.d.c.v.c.f.d.v.v.s.c.v.z.d.v.v.d.d.c.f.p.i.p.p.2.~ 3 ; ; < 6 ..f.b.d.2.e.f.d.f.p.z.c.t.t.p.s.c.f...j i.'.v.f.f.p.p.4.>.",
"^ ^ ^ ` e.b.f.p.f.d.f.d.f.v.d.i.f.v.d.v.4.) 3 i.v.f.v.f.f.d.,.6 ^ 9X{.b.b.b.b.b.v.v.v.v.v.b.b.b.v.b.v.v.v.z.d.v.v.d.z.v.v.v.f.f.2.~ < 4 Q Q ( ^ { d.h.d.d.f.f.d.d.b.d.i.d.v.f.f.d.2.Q j f.b.v.v.f.f.p.| ",
"f.i.t.>.k 2.d.f.b.b.f.i.d.f.p.f.v.r.] ' 6 ^ ] Q d.'.v.2.4.d...6 ~ >X{.b.v.b.b.v.v.v.v.b.v.v.v.z.z.v.v.d.p.p.i.p.p.d.b.v.v.z.p.i.2.l 6 t.h.p.i.r.( ( p.f.f.b.b.d.i.f.d.v.b.d...] ^ k ' ( ` ].z.v.,.p.4.) ",
"d.2.e.h.r.{ 2.u.d.d.d.r.2.p.p.f.r.2.>.d.d.b.d...2.d.r.>.2.5.| 3 ~ 5X}.b.b.b.b.v.d.v.v.v.v.d.d.p.i.z.f.d.d.v.f.v.d.d.v.p.v.v.d.p.<.l 3 [.[.e.2.f.d.>.1.e.i.f.d.d.2.d.p.d.i.r.2.2.d.f.v.4...r.z.2.>.2.3.~ ",
">...2.2.r.2.1...{ { ' Q { d.2.....>.p.4.2.,...>.2.3.>.>.] ] ' 6 W >Xv.p.p.z.v.d.v.d.p.d.z.p.z.p.p.p.p.4.p.p.p.p.p.p.p.p.p.p.4.5.,.j 4 y.2.>.2.2.2.2.2...| { ' ~ ~ i.5.,.....t.r.4.2.....4.2...,...' ] l ",
"6 Q ~ 6 4 3 < ; , , , 4 W j l l j 6 3 , , 6 j k j g j k k g < , ; 6 j ' ) ) ) ) ( ( x ( ~ x ~ ) ) ) ~ x ( l ~ l k x ~ Q ~ ( ) ) k 6 , 6 g ~ ~ k 7 7 5 ; , , , 3 Q k W l 7 j 7 < , 4 j W 7 j j j k k < < ",
"r.y.t.4.e.e.y.t.y.y.r.r...k 3 3 s.s.r.r.e.e.e.y.y.y.r.y.r.e.2.e.y.t.y.r.r.u.e.e.s.s.i.e.r.r.{ < , 3 h.s.e.e.e.e.e.r.y.r.` 4 < , 3 6 ^ 2.<.%.L t S I I +.L O.,.w.@.L B v y.O.d >.e.#.U 7.y.e.y.u.e.w.2.1.",
"].].b.b.].].].].b.b.v.b.z.r.j 3 :X>X{.{.{.'.b.'.{.].].].b.b.].].[.].].[.b.b.].'.d.w.d.'.'.f.^ , , j 9X:X{.}.{.].].].{.].[.b.>.3 3 ' {.].'.E.,.7.K.7.v.'.v.v.b.b.i.<.N A.5X[.f.].{.v.7.E._.n.}.n.'.v.'.'.",
"i.i.r.r.r.i.i.i.i.i.4.p.i.2.x < [.[.i.s.d.i.d.d.d.i.d.p.s.i.p.i.r.i.i.t.r.r.y.t.2.( j ( ) j Q k 3 3 2.f.e.>.>.] 2.d.s.d.d.2.( k ` >.d.s.8.F _ y.p.s.i.r.t.t.8.i.i.o.v A.=Xb.d.d.s.s.y.A.;.s.z.p.s.i.d.i.",
"t.i.t.t.r.r.i.r.4.i.i.4.i.,.l ; h.{.s.d.s.i.i.r.r.r.r.i.i.i.i.i.s.t.i.r.i.p.2.4.i.i.2.2.>.4.d.>.k , 3 j ` ~ 1.e.e.i.d.i.r.' Q r.d.s.i.i.i.<.>.8.t.8.r.r.r.i.r.r.4.' 1 b -Xh.p.p.i.i.p.H &.r.i.y.!.!.u.i.",
"e.r.e.w.2.3.r.4.2.r.4.2.r.>.l - y.[.i.i.p.r.r.4.4.r.4.r.r.r.2.3.2.2.4.r.2.2.>...2.4.2.2.2.2.2.' 3 3 h.r.p.s.i...>.] ' 2.i.i.i.2.>.,.4.2.i.r.2.3.4.@.0.=.4.r.2.4.4.) , ! &Xd.i.s.i.4.Z.$.e.u.y.y.C.:.w.4.",
"<.2.2.2.2.,.3.2.,.,.,.2.,.| Q ; e.{.e.2.r.2.u.u.4.2.2.2.2.2.,.2.2.^ ' { ' ..] ' ....] ' ....' ' 3 4 s.w.>.{ ' Q ( Q j 4 k { ..' ( ' ] 3.2.2.1.2...4.T f @.2.2.2...~ ; ] =Xi.2.e.u.3.D 4.u.2.-.C.F Y <.2.",
"~ ( ~ ~ b ( ~ ( ~ ( x ~ ( k 4 & j ' ( ] ) ' ( ) ) ) ) ( ) ) ' ) ) k l ~ Q x ~ Q k k j l l k ! 7 < ; W j k Q Q Q ` ` Q k 3 , 3 3 4 g k ( ` ( ( '  .J i 6 ~ ) / / Q b D L [ ' ' ..| ( k ] ' ) v v x f p m ",
"k j W k j j q ! j k j j ! j q ! 4 j k Q Q ! k j j j j k j 7 , , - ; , ; ; * , * 5 q 7 7 4 q ! q q 4 4 4 4 7 ! q , * 4 j ! k q 5 , ; g n 3 j h s F B i a > 2 a N s p F f v v v m h j q 7 7 j k x b A D w ",
"n.s.e.e.e.y.e.e.e.e.y.e.r.e.3.e.w.e.e.e.e.e.e.2.e.e.e.e.w.1.' < * & & * * < 4 4 j ` [ w.w.e.y.w.y.w.1.{ w.{ [ 4 4 ^ 2.r.e.e.e.{ 6 X Q [.s.e.e.O.B I v >.O._ C _ n m ' 2.2.w.O.A &.w.e.e.r.e.e.3.,.Z B 2 ",
"y.1.{ { ..X.{ X.] { ..{ { ] ..] { { { { { { { ] { { { ] ' ' ) 6 - & & & 5 ! { { ' Q [ { { ..] { [ [ ' { [ { ( , ^ 1...{ ] ' [ ' l * ! s...{ >.{ _ B ^ { { X...{ ..X.........[ V K { [ { ..{ ' [ _ D % & ",
"w.w...{ { { { { { { { { { ..{ { { ] { ] ] ' ] ] ' ] ] ] ' ] ( 6 * * 3 6 4 4 j [ X.[ [ [ ' ' ] ..` ` { { ' ] ^ 6 * Q { ] { [ { ` k * Q s...{ { { +.B ! { { { ] { { { { ' { ' [ v b [ { [ [ { { [  .B * & ",
"[ 1.{ ' [ [ ' ' ' ' ' ' ' ' ' ' ' ' ' ` ` ( ` ` ' ' ' ' ( ` ~ 3 & ! { ' ^ ^ 4 3 Q ` ` { ] ^ } ' ` [ ' ^ 4 q 5 6 j < ` ] ' Q Q ( 6 & ! e.{ ] [ _ B d Q ' [ ' ` ` ' ` ' ' ' ` ` ~ ^ ` ' ' ' ' ) ^ m t & < ",
"} w.' ` ` ' ` ` ( ( ` ` ( ( Q Q ( ( ~ ( ( ( ( ( ( ( ^ ( ` ~ l 3 X W [ W j Q ' ! j ! Q ~ Q ! q ` ^ Q W k k ` ` } Q j k ^ k j j j 3 X k 3.' ` ' m s ! ' ` ` ) V h ^ ~ ` ) ^ ^ ` ( ^ ^ ^ ( ^ ` ) ~ h 2 > V ",
"4 Q j k k W k W k k k k j k k k k j g j k j j j k k k k j j 4 < . 5 7 3 q 4 4 4 4 5 , , , - 5 j q 4 3 3 j 4 4 4 4 4 j 3 4 4 3 < ; = > a 4 ! Q j g Q W j k h t N j l k j g j j 7 l h f h 7 l k 7 6 5 % e ",
"X X & : , : * : - - - * * * & * * * - * o * * & o o - o - - * & X X X * 5 * & = X X X X X X - X & * & & X   . & & * & * * * * o X   X . 2 a 2 - , , > q q % r e w w > > : > % % w w 0 9 % > 2 > o & X X ",
"+ # r 0 8 8 # 8 @ 8 8 @ $ 8 @ + 9 r 0 0 8 0 8 # 9 0 r w r 8 9 8 @ + + 8 s 0 8 8 9 8 # 9 $ # 8 # % + 9 s 9 9 r 0 @ 8 0 s 0 r w 8 # 8 # + # e t 8 $ 8 e 8 0 8 # $ # 8 8 8 r w 8 w t 8 @ 0 r t t t e $ @ % ",
"0 w r r r # + 8 0 y r r 9 @ 8 r r 0 0 8 0 r 0 0 9 t w r y $ 8 9 8 9 9 0 r w 0 r @ O 8 0 s r 9 0 # @ t t 0 0 # 9 0 0 0 0 r w r s 8 9 # 8 8 # r t w 0 w + O $ e y t 9 8 # @ t t w w # 9 w e 9 w w e t w e "
};
